# xmcd
#
# Track frame offsets: 
#        150
#        30920
#        86345
#        127975
#        152895
#        197407
#        233922
#        272575
#
# Disc length: 4283 seconds
#
# Revision: 1
# Processed by: cddbd v1.4PL0 Copyright (c) Steve Scherf et al.
# Submitted via: ExactAudioCopy v0.90b4
#
DISCID=5610b908
DTITLE=Pat Hall And The Fat Guys Band - Heart Of The Blues
DYEAR=1999
DGENRE=Blues
TTITLE0=Chicken Shack
TTITLE1=Heart Of The Blues
TTITLE2=I Got My Mojo Workin'
TTITLE3=Mercury Blues
TTITLE4=Big Fat Waitress
TTITLE5=Has My Car Been Towed?
TTITLE6=Apolitical Blues
TTITLE7=Bad, Bad Feelin'
EXTD=
EXTT0=
EXTT1=
EXTT2=
EXTT3=
EXTT4=
EXTT5=
EXTT6=
EXTT7=
PLAYORDER=
